{"title":"Continuum S03E04 HDTV x264 [2HD]","uid":9927452,"size":300662724,"categoryP":"video","categoryS":"tv_shows","magnet":"?xt=urn:btih:431a3ea05408b4b3398f73770d618f533a302d92&amp;dn=Continuum+S03E04+HDTV+x264+%5B2HD%5D&amp;tr=udp%3A%2F%2Ftracker.openbittorrent.com%3A80&amp;tr=udp%3A%2F%2Fopen.demonii.com%3A1337&amp;tr=udp%3A%2F%2Ftracker.coppersurfer.tk%3A6969&amp;tr=udp%3A%2F%2Fexodus.desync.com%3A6969","seeders":3,"leechers":0,"uploader":"haloReD","files":-1,"time":1397079270,"description":"                  Continuum S03E04 HDTV x264 [2HD]\n\nGeneral:\n\nName                    : Continuum.S03E04.HDTV.x264-2HD.mp4\nFormat                  : MPEG-4\nCodec ID                : isom\nFile size               : 279 MiB\nDuration                : 44mn 1s\nOverall bit rate mode   : Variable\nOverall bit rate        : 885 Kbps\n\n\nVideo:\n\nFormat                  : AVC\nDuration                : 44mn 1s\nBit rate                : 747 Kbps\nMaximum bit rate        : 2 757 Kbps\nWidth                   : 720 pixels\nHeight                  : 404 pixels\nDisplay aspect ratio    : 16:9\nFrame rate              : 23.976 fps\nStream size             : 235 MiB (84%)\n\n\nAudio:\n\nFormat                  : AAC\nCodec ID                : 40\nDuration                : 44mn 1s\nBit rate mode           : Variable\nBit rate                : 132 Kbps\nMaximum bit rate        : 151 Kbps\nChannel(s)              : 2 channels\nSampling rate           : 48.0 KHz\nCompression mode        : Lossy\nStream size             : 42.2 MiB (15%)\n\nScreen:\n\n &lt;a href=&quot;\nhttp://i.imgur.com/kNxer05.jpg&quot; rel=&quot;nofollow&quot; target=&quot;_NEW&quot;&gt;\nhttp://i.imgur.com/kNxer05.jpg&lt;/a&gt;\n","torrent":{"xt":"urn:btih:431a3ea05408b4b3398f73770d618f533a302d92","amp;dn":"Continuum+S03E04+HDTV+x264+%5B2HD%5D","amp;tr":["udp%3A%2F%2Ftracker.openbittorrent.com%3A80","udp%3A%2F%2Fopen.demonii.com%3A1337","udp%3A%2F%2Ftracker.coppersurfer.tk%3A6969","udp%3A%2F%2Fexodus.desync.com%3A6969"],"infoHash":"431a3ea05408b4b3398f73770d618f533a302d92","infoHashBuffer":{"type":"Buffer","data":[67,26,62,160,84,8,180,179,57,143,115,119,13,97,143,83,58,48,45,146]},"announce":[],"urlList":[]}}